{"title":"Thirty Seconds To Mars - This Is War (Uncensored)[redchain55]","uid":6338695,"size":121267056,"categoryP":"video","categoryS":"music_videos","magnet":"?xt=urn:btih:6ff1dfbcac83ef26c79fcbae42b39b132745d8ef&amp;dn=Thirty+Seconds+To+Mars+-+This+Is+War+%28Uncensored%29%5Bredchain55%5D&amp;tr=udp%3A%2F%2Ftracker.openbittorrent.com%3A80&amp;tr=udp%3A%2F%2Fopen.demonii.com%3A1337&amp;tr=udp%3A%2F%2Ftracker.coppersurfer.tk%3A6969&amp;tr=udp%3A%2F%2Fexodus.desync.com%3A6969","seeders":2,"leechers":0,"uploader":"redchain55","files":1,"time":1303565445,"description":"The most Awaited Video from 30 Seconds To Mars.. is out .. and here is it..all clear and HD .. So Download and View and Share..!!\n\n\nneways..\n\nIn Here WE SHARE CZ ITS OUR DUTY..\n\nSO DOWNLOAD AND SHARE.. \n\nREDCHAIN55 ASSURES THE BEST QUALITY VIRUS FREE FILES..\n\t\t\n\n\n\n\n\nFormat                           : MPEG-4\nFormat profile                   : Base Media / Version 2\nCodec ID                         : mp42\nFile size                        : 116 MiB\nDuration                         : 6mn 0s\nOverall bit rate                 : 2 694 Kbps\n\nVideo\nID                               : 1\nFormat                           : AVC\nFormat/Info                      : Advanced Video Codec\nFormat profile                   : &lt;a class=&quot;__cf_email__&quot; href=&quot;/cdn-cgi/l/email-protection&quot; data-cfemail=&quot;d59dbcb2bd9599e6fbe4&quot;&gt;[email&amp;#160;protected]&lt;/a&gt;&lt;script cf-hash='f9e31' type=&quot;text/javascript&quot;&gt;\n/* &lt;![CDATA[ */!function(){try{var t=&quot;currentScript&quot;in document?document.currentScript:function(){for(var t=document.getElementsByTagName(&quot;script&quot;),e=t.length;e--;)if(t[e].getAttribute(&quot;cf-hash&quot;))return t[e]}();if(t&amp;&amp;t.previousSibling){var e,r,n,i,c=t.previousSibling,a=c.getAttribute(&quot;data-cfemail&quot;);if(a){for(e=&quot;&quot;,r=parseInt(a.substr(0,2),16),n=2;a.length-n;n+=2)i=parseInt(a.substr(n,2),16)^r,e+=String.fromCharCode(i);e=document.createTextNode(e),c.parentNode.replaceChild(e,c)}}}catch(u){}}();/* ]]&gt; */&lt;/script&gt;\nFormat settings, CABAC           : Yes\nFormat settings, ReFrames        : 1 frame\nCodec ID                         : avc1\nCodec ID/Info                    : Advanced Video Coding\nDuration                         : 6mn 0s\nBit rate mode                    : Variable\nBit rate                         : 2 562 Kbps\nMaximum bit rate                 : 15.6 Mbps\nWidth                            : 1 280 pixels\nHeight                           : 720 pixels\nDisplay aspect ratio             : 16:9\nFrame rate mode                  : Variable\nFrame rate                       : 23.976 fps\nMinimum frame rate               : 17.241 fps\nMaximum frame rate               : 24.390 fps\nColor space                      : YUV\nChroma subsampling               : 4:2:0\nBit depth                        : 8 bits\nScan type                        : Progressive\nBits/(Pixel*Frame)               : 0.116\nStream size                      : 110 MiB (95%)\nTagged date                      : UTC 2011-04-04 06:14:50\n\nAudio\nID                               : 2\nFormat                           : AAC\nFormat/Info                      : Advanced Audio Codec\nFormat version                   : Version 4\nFormat profile                   : LC\nFormat settings, SBR             : No\nCodec ID                         : 40\nDuration                         : 6mn 0s\nBit rate mode                    : Variable\nBit rate                         : 126 Kbps\nMaximum bit rate                 : 147 Kbps\nChannel(s)                       : 2 channels\nChannel positions                : Front: L R\nSampling rate                    : 44.1 KHz\nStream size                      : 5.43 MiB (5%)\n","torrent":{"xt":"urn:btih:6ff1dfbcac83ef26c79fcbae42b39b132745d8ef","amp;dn":"Thirty+Seconds+To+Mars+-+This+Is+War+%28Uncensored%29%5Bredchain55%5D","amp;tr":["udp%3A%2F%2Ftracker.openbittorrent.com%3A80","udp%3A%2F%2Fopen.demonii.com%3A1337","udp%3A%2F%2Ftracker.coppersurfer.tk%3A6969","udp%3A%2F%2Fexodus.desync.com%3A6969"],"infoHash":"6ff1dfbcac83ef26c79fcbae42b39b132745d8ef","infoHashBuffer":{"type":"Buffer","data":[111,241,223,188,172,131,239,38,199,159,203,174,66,179,155,19,39,69,216,239]},"announce":[],"urlList":[]}}